<svg width="57" height="56" viewBox="0 0 57 56" fill="none" xmlns="http://www.w3.org/2000/svg">
<g clip-path="url(#clip0_476_4245)">
<path d="M34.2331 9.33314L49.8749 24.7005C50.7654 25.5756 51.2656 26.7624 51.2656 27.9998C51.2656 29.2372 50.7654 30.424 49.8749 31.2991L34.2331 46.6665C33.5689 47.3195 32.7224 47.7643 31.8008 47.9445C30.8792 48.1248 29.9238 48.0324 29.0556 47.6791L28.7113 47.5205C27.9328 47.1291 27.2794 46.5343 26.823 45.8015C26.3667 45.0686 26.1251 44.2262 26.1249 43.3671V37.3331H14.2499C13.62 37.3331 13.0159 37.0873 12.5705 36.6497C12.1251 36.2121 11.8749 35.6186 11.8749 34.9998V20.9998L11.8915 20.7268C11.9596 20.1592 12.2373 19.6359 12.672 19.2561C13.1067 18.8764 13.6682 18.6665 14.2499 18.6665L26.1249 18.6641V12.6325C26.1251 11.7096 26.4038 10.8076 26.9257 10.0403C27.4477 9.27308 28.1895 8.6751 29.0573 8.32197C29.9251 7.96884 30.88 7.87643 31.8013 8.05641C32.7226 8.2364 33.5688 8.68069 34.2331 9.33314Z" fill="#C5B17F"/>
<path d="M46.5146 28.0001L30.8753 12.6328V21.0001L30.8586 21.2731C30.7906 21.8407 30.5129 22.364 30.0782 22.7438C29.6434 23.1236 29.082 23.3334 28.5003 23.3335L16.6253 23.3311V32.6645L28.5003 32.6668C29.1302 32.6668 29.7343 32.9126 30.1797 33.3502C30.6251 33.7878 30.8753 34.3813 30.8753 35.0001V43.3675L46.5146 28.0001Z" fill="#C5B17F"/>
<path d="M7.125 18.6665C6.54328 18.6666 5.98183 18.8764 5.54712 19.2562C5.11241 19.6359 4.83469 20.1593 4.76662 20.7268L4.75 20.9998V34.9998C4.75067 35.5946 4.98246 36.1666 5.39801 36.599C5.81357 37.0315 6.38151 37.2917 6.98581 37.3266C7.59011 37.3614 8.18515 37.1683 8.64935 36.7866C9.11355 36.4048 9.41188 35.8634 9.48338 35.2728L9.5 34.9998V20.9998C9.5 20.381 9.24978 19.7875 8.80438 19.3499C8.35898 18.9123 7.75489 18.6665 7.125 18.6665Z" fill="#C5B17F"/>
</g>
<defs>
<clipPath id="clip0_476_4245">
<rect width="57" height="56" fill="white" transform="matrix(-1 0 0 1 57 0)"/>
</clipPath>
</defs>
</svg>
