<svg width="1600" height="900" viewBox="0 0 1600 900" fill="none" xmlns="http://www.w3.org/2000/svg">
<path d="M1600 900H0V0H1600V900ZM860.603 458.74C861.408 459.911 848.858 479.247 847.961 480.866C838.368 498.855 829.85 517.473 822.768 536.541C798.291 603.189 795.601 699.158 867.416 737.474C867.595 737.474 924.528 769.763 958.688 690.703C958.641 690.78 932.563 734.29 893.955 695.021C881.672 682.518 873.692 660.662 868.044 644.562C851.457 597.612 851.727 537.44 871.989 491.929C873.244 489.051 874.589 485.993 874.409 482.845C873.961 473.761 869.927 471.872 860.603 458.74ZM747.902 564.873C746.02 565.596 743.599 605.434 742.972 608.854C737.772 637.276 728.806 666.238 711.86 689.983C704.777 699.877 695.991 708.152 685.771 714.628C680.66 717.866 675.191 720.655 669.632 723.083C666.225 724.612 658.694 725.781 663.087 731.178C664.252 732.617 665.956 733.516 667.57 734.235C693.391 746.378 730.24 745.838 752.296 725.961C766.82 712.919 777.131 695.74 783.676 677.392C798.29 636.647 795.421 591.136 787.173 549.402L747.902 564.873ZM874.32 553.45C873.963 555.43 906.239 578.634 908.839 580.973C930.087 600.49 949.902 623.425 960.84 650.498C965.412 661.741 967.833 673.614 967.833 685.756C967.833 691.872 967.295 697.988 966.488 704.015C965.95 707.702 962.991 714.717 969.895 713.908C971.688 713.638 973.392 712.739 974.916 711.75C998.854 696.19 1017.95 664.619 1012.84 635.298C1009.52 616.05 1000.47 598.152 988.454 582.861C961.736 548.683 921.749 527.007 882.12 511.896L874.32 553.45ZM820.705 502.992C820.167 504.251 797.125 503.892 795.242 503.981C774.98 505.331 754.717 507.939 734.813 512.166C665.598 526.737 582.935 575.397 588.763 656.795C588.861 656.985 591.934 722.254 676.716 709.411C676.716 709.411 625.97 710.4 638.701 656.614C642.736 639.525 657.081 621.177 667.66 607.775C698.592 568.83 749.518 537.081 798.739 530.155C801.877 529.706 805.105 529.256 807.705 527.457C815.147 522.24 814.519 517.833 820.705 502.992ZM867.595 403.335C859.616 399.108 855.939 401.626 839.891 402.976C841.325 402.886 851.457 423.572 852.443 425.191C862.933 442.64 874.588 459.46 887.409 475.29C932.148 530.335 1013.11 581.602 1082.5 539.06C1082.59 538.97 1139.26 506.23 1088.87 436.524C1088.92 436.62 1112.93 481.331 1059.55 494.628C1042.52 498.855 1019.74 494.538 1003.07 491.3C954.384 481.676 902.92 450.825 874.14 410.081C872.347 407.473 870.374 404.864 867.595 403.335ZM495.877 462.968C493.008 460.539 488.615 454.333 485.746 460.719C485.029 462.428 484.939 464.316 485.028 466.115C485.656 494.717 502.512 527.636 530.036 538.609C548.147 545.805 568.051 547.424 587.327 545.266C630.093 540.139 669.453 517.293 703.164 491.39L671.964 462.968C670.44 461.619 633.859 477.089 630.542 478.078C602.838 485.993 572.982 490.85 544.292 486.173C532.368 484.194 520.981 479.967 510.671 473.671C505.471 470.523 500.629 466.835 495.877 462.968ZM713.116 427.8C669.364 372.035 589.21 319.418 519.099 360.792C519.099 360.792 461.897 392.542 511.119 463.147C511.119 463.147 487.719 417.996 541.333 405.584C558.457 401.627 581.141 406.304 597.728 409.901C646.232 420.335 697.247 451.995 725.31 493.188C727.103 495.797 728.986 498.494 731.766 500.023C739.655 504.431 743.421 501.912 759.38 500.833C757.945 500.923 748.173 480.057 747.187 478.438C736.966 460.809 725.668 443.81 713.116 427.8ZM1068.7 361.512C1050.5 354.586 1030.5 353.327 1011.32 355.846C968.549 361.512 929.638 384.987 896.375 411.521L928.024 439.402C929.549 440.751 965.86 424.651 969.267 423.662C996.791 415.297 1026.56 409.902 1055.34 414.129C1067.26 415.928 1078.74 419.885 1089.14 426.091C1094.43 429.149 1099.36 432.747 1104.11 436.524C1107.07 438.863 1111.46 445.069 1114.33 438.593C1115.05 436.884 1115.05 434.995 1114.96 433.196C1113.88 404.594 1096.49 372.035 1068.7 361.512ZM724.322 161.389C724.162 161.262 666.069 131.79 635.383 212.026C635.443 211.916 659.64 167.371 699.847 204.921C712.668 216.883 721.543 238.47 727.819 254.3C746.378 300.53 748.71 360.612 730.33 406.933C729.165 409.901 727.999 412.959 728.268 416.107C729.075 425.191 733.199 426.81 743.062 439.582C742.165 438.503 753.909 418.627 754.717 416.917C763.503 398.569 771.303 379.591 777.489 360.253C799.097 292.616 797.751 196.556 724.322 161.389ZM1012.75 245.755C1012.75 245.579 1011.92 180.2 926.77 189.99C926.77 189.99 977.516 190.801 962.901 244.137C958.239 261.136 943.357 278.944 932.239 291.896C899.963 329.761 847.961 359.623 798.471 364.75C795.333 365.11 792.015 365.469 789.415 367.178C781.794 372.125 782.243 376.533 775.519 391.193C776.146 389.934 799.099 391.192 800.981 391.103C821.244 390.473 841.596 388.585 861.679 385.077C931.432 373.025 1015.71 327.333 1012.75 245.755ZM626.955 199.075C627.314 195.298 630.003 188.192 623.189 189.361C621.397 189.631 619.783 190.71 618.259 191.789C595.038 208.338 577.286 240.718 583.562 269.77C587.686 288.837 597.548 306.376 610.1 321.127C638.342 354.046 679.225 374.014 719.481 387.415C719.5 387.283 725.488 345.596 725.488 345.502C725.757 343.433 692.495 321.758 689.805 319.509C667.749 300.891 647.038 278.764 634.845 252.321C629.824 241.258 626.865 229.475 626.327 217.333C626.058 211.217 626.328 205.101 626.955 199.075ZM936.811 165.526C911.438 152.485 874.588 151.675 851.815 170.743C836.843 183.245 825.994 200.064 818.731 218.143C802.593 258.347 803.938 303.859 810.662 345.952L850.47 331.921C852.353 331.291 856.209 291.536 857.016 288.208C863.292 259.966 873.153 231.364 890.995 208.249C898.437 198.625 907.492 190.62 917.981 184.504C923.271 181.446 928.741 178.837 934.39 176.589C937.886 175.15 945.417 174.34 941.203 168.764C940.127 167.325 938.424 166.336 936.811 165.526Z" fill="white"/>
</svg>
