<svg width="20" height="20" viewBox="0 0 20 20" fill="none" xmlns="http://www.w3.org/2000/svg">
<path d="M9.71777 0C13.5989 9.926e-10 15.5396 9.20742e-05 16.9375 0.924805C17.5617 1.33785 18.0967 1.87282 18.5098 2.49707C19.4347 3.895 19.4346 5.83617 19.4346 9.71777C19.4346 13.599 19.4345 15.5396 18.5098 16.9375C18.0967 17.5617 17.5617 18.0967 16.9375 18.5098C15.5396 19.4345 13.599 19.4346 9.71777 19.4346C5.83617 19.4346 3.895 19.4347 2.49707 18.5098C1.87282 18.0967 1.33785 17.5617 0.924805 16.9375C9.20742e-05 15.5396 9.926e-10 13.5989 0 9.71777C0 5.83626 -3.6505e-05 3.895 0.924805 2.49707C1.33785 1.87282 1.87282 1.33785 2.49707 0.924805C3.895 -3.6505e-05 5.83626 0 9.71777 0ZM9.7168 4.68652C6.93855 4.68675 4.68652 6.93947 4.68652 9.71777C4.6866 12.496 6.9386 14.7478 9.7168 14.748C12.4952 14.748 14.748 12.4962 14.748 9.71777C14.748 6.93933 12.4952 4.68652 9.7168 4.68652ZM9.7168 6.38867C11.5552 6.38867 13.0459 7.87936 13.0459 9.71777C13.0458 11.5561 11.5552 13.0459 9.7168 13.0459C7.87862 13.0457 6.38875 11.556 6.38867 9.71777C6.38867 7.8795 7.87857 6.3889 9.7168 6.38867ZM14.9463 3.25195C14.2938 3.25219 13.7649 3.78111 13.7646 4.43359C13.7646 5.0863 14.2936 5.61598 14.9463 5.61621C15.5991 5.61621 16.1289 5.08645 16.1289 4.43359C16.1286 3.78096 15.599 3.25195 14.9463 3.25195Z" fill="#C5B17F"/>
</svg>
