<svg width="20" height="19" viewBox="0 0 20 19" fill="none" xmlns="http://www.w3.org/2000/svg">
<path d="M0 2.15007C0 1.52685 0.218866 1.0127 0.656581 0.607629C1.09429 0.202537 1.66334 0 2.36369 0C3.05154 0 3.60806 0.199414 4.03328 0.598281C4.47099 1.0096 4.68986 1.54555 4.68986 2.20616C4.68986 2.80444 4.47726 3.303 4.05204 3.70186C3.61433 4.11318 3.03903 4.31884 2.32617 4.31884H2.30741C1.61956 4.31884 1.06304 4.11318 0.637821 3.70186C0.212601 3.29054 0 2.77327 0 2.15007ZM0.243873 18.5093V6.0202H4.40847V18.5093H0.243873ZM6.71588 18.5093H10.8805V11.5356C10.8805 11.0993 10.9305 10.7628 11.0306 10.526C11.2056 10.1022 11.4714 9.74386 11.8278 9.45097C12.1843 9.15805 12.6314 9.0116 13.1691 9.0116C14.5698 9.0116 15.2702 9.95264 15.2702 11.8347V18.5093H19.4348V11.3486C19.4348 9.50393 18.9971 8.10483 18.1216 7.15132C17.2462 6.19781 16.0894 5.72106 14.6511 5.72106C13.0378 5.72106 11.7809 6.41282 10.8805 7.79635V7.83374H10.8617L10.8805 7.79635V6.0202H6.71588C6.74089 6.41905 6.7534 7.65923 6.7534 9.74076C6.7534 11.8223 6.74089 14.7451 6.71588 18.5093Z" fill="#C5B17F"/>
</svg>
