<svg width="174" height="55" viewBox="0 0 174 55" fill="none" xmlns="http://www.w3.org/2000/svg">
<path d="M11.4005 51.4029H10.0696C9.98593 51.4029 9.90222 51.344 9.87711 51.2683L8.96474 48.6434C8.93962 48.5593 8.85592 48.5088 8.77221 48.5088H3.12217C3.03847 48.5088 2.95476 48.5677 2.92965 48.6434L2.00053 51.2683C1.96705 51.3524 1.89172 51.4029 1.80801 51.4029H0.468744C0.326447 51.4029 0.226002 51.2598 0.276224 51.1252L4.65396 38.859C4.68744 38.7749 4.76278 38.7244 4.84648 38.7244H7.02279C7.1065 38.7244 7.1902 38.7833 7.21531 38.859L11.5931 51.1252C11.6433 51.2598 11.5428 51.4029 11.4005 51.4029ZM8.05236 46.8935C8.19465 46.8935 8.2951 46.7505 8.24488 46.6159L6.06856 40.4996H5.78397L3.63277 46.6159C3.58255 46.7505 3.68299 46.8935 3.82529 46.8935H8.05236Z" fill="#C5B17F"/>
<path d="M24.9355 48.4751C24.4166 49.4258 23.6883 50.1493 22.7508 50.6457C21.8134 51.1505 20.7336 51.3945 19.5031 51.3945H15.2593C15.1505 51.3945 15.0584 51.3019 15.0584 51.1841V38.9264C15.0584 38.817 15.1505 38.7244 15.2593 38.7244H19.5031C20.7085 38.7244 21.7715 38.9684 22.709 39.4648C23.6465 39.9612 24.3747 40.6847 24.9104 41.6354C25.4377 42.586 25.7056 43.7302 25.7056 45.0595C25.714 46.3887 25.4545 47.5245 24.9355 48.4751ZM21.8217 48.9883C22.4662 48.5929 22.9517 48.0461 23.2782 47.3562C23.6046 46.6663 23.7637 45.9008 23.7637 45.0595C23.7637 44.2181 23.6046 43.4442 23.2782 42.7543C22.9517 42.056 22.4662 41.5092 21.8217 41.1053C21.1688 40.7015 20.3904 40.4996 19.478 40.4996H17.218C17.1008 40.4996 17.0087 40.5921 17.0087 40.7099V49.3838C17.0087 49.5015 17.1008 49.5857 17.218 49.5857H19.478C20.3904 49.5857 21.1688 49.3922 21.8217 48.9883Z" fill="#C5B17F"/>
<path d="M35.8171 45.9344V47.129C35.8171 47.2468 35.725 47.3394 35.6078 47.3394H29.5728C29.4556 47.3394 29.3635 47.2468 29.3635 47.129V45.9344C29.3635 45.8166 29.4556 45.7241 29.5728 45.7241H35.6078C35.725 45.7325 35.8171 45.825 35.8171 45.9344Z" fill="#C5B17F"/>
<path d="M50.0385 48.4751C49.5195 49.4258 48.7913 50.1493 47.8622 50.6457C46.9247 51.1505 45.8449 51.3945 44.6144 51.3945H40.3706C40.2534 51.3945 40.1697 51.3019 40.1697 51.1841V38.9264C40.1697 38.817 40.2618 38.7244 40.3706 38.7244H44.6144C45.8114 38.7244 46.8828 38.9684 47.8203 39.4648C48.7578 39.9612 49.486 40.6847 50.0217 41.6354C50.5491 42.586 50.8169 43.7302 50.8169 45.0595C50.8086 46.3887 50.5491 47.5245 50.0385 48.4751ZM46.9163 48.9883C47.5608 48.5929 48.0547 48.0461 48.3728 47.3562C48.6992 46.6663 48.8582 45.9008 48.8582 45.0595C48.8582 44.2181 48.6992 43.4442 48.3728 42.7543C48.0463 42.056 47.5608 41.5092 46.9163 41.1053C46.2718 40.7015 45.485 40.4996 44.5726 40.4996H42.3126C42.1954 40.4996 42.1117 40.5921 42.1117 40.7099V49.3838C42.1117 49.5015 42.2037 49.5857 42.3126 49.5857H44.5726C45.4933 49.5857 46.2718 49.3922 46.9163 48.9883Z" fill="#C5B17F"/>
<path d="M64.1594 51.4029H62.8285C62.7448 51.4029 62.6611 51.344 62.636 51.2683L61.7236 48.6434C61.6985 48.5593 61.6148 48.5088 61.5311 48.5088H55.8727C55.789 48.5088 55.7053 48.5677 55.6802 48.6434L54.751 51.2683C54.7176 51.3524 54.6422 51.4029 54.5585 51.4029H53.2276C53.0853 51.4029 52.9849 51.2598 53.0351 51.1252L57.4128 38.859C57.4463 38.7749 57.5217 38.7244 57.6054 38.7244H59.7817C59.8654 38.7244 59.9491 38.7833 59.9742 38.859L64.3519 51.1252C64.4022 51.2598 64.3017 51.4029 64.1594 51.4029ZM60.8112 46.8935C60.9535 46.8935 61.054 46.7505 61.0038 46.6159L58.8274 40.4996H58.5429L56.3833 46.6159C56.3331 46.7505 56.4335 46.8935 56.5758 46.8935H60.8112Z" fill="#C5B17F"/>
<path d="M76.0453 45.2782C76.3551 45.4633 76.5978 45.7073 76.7736 46.0101C76.9494 46.313 77.0414 46.6495 77.0414 47.0113V51.1841C77.0414 51.3019 76.9494 51.3945 76.8322 51.3945H75.4594C75.3422 51.3945 75.2502 51.3019 75.2502 51.1841V47.0617C75.2502 46.7505 75.133 46.4728 74.8986 46.2373C74.6642 46.0017 74.388 45.8839 74.0616 45.8839H69.9266C69.8094 45.8839 69.7257 45.9765 69.7257 46.0943V51.1841C69.7257 51.3019 69.6336 51.3945 69.5164 51.3945H68.0181C67.9009 51.3945 67.8172 51.3019 67.8172 51.1841V38.9264C67.8172 38.8086 67.9093 38.716 68.0181 38.716H73.5593C74.388 38.716 75.0828 38.859 75.6436 39.1367C76.2044 39.4143 76.6145 39.7845 76.8908 40.2556C77.1586 40.7267 77.2925 41.2652 77.2925 41.8709C77.2925 42.4514 77.1503 42.9478 76.8657 43.3516C76.5811 43.7638 76.2714 44.0667 75.9365 44.277C75.6017 44.479 75.3088 44.6304 75.0744 44.7145H75.0409V45.009C75.4008 45.009 75.7356 45.1015 76.0453 45.2782ZM74.3629 43.89C74.6642 43.7386 74.907 43.5283 75.0828 43.2591C75.2585 42.9898 75.3506 42.6702 75.3506 42.3084C75.3506 41.9382 75.2585 41.6101 75.0828 41.3409C74.907 41.0717 74.6642 40.8613 74.3629 40.7183C74.0616 40.5753 73.7267 40.4996 73.3501 40.4996H69.9684C69.8512 40.4996 69.7675 40.5921 69.7675 40.7099V43.9153C69.7675 44.0331 69.8596 44.1256 69.9684 44.1256H73.3501C73.7267 44.1172 74.0616 44.0415 74.3629 43.89Z" fill="#C5B17F"/>
<path d="M91.2963 51.4029H89.9654C89.8817 51.4029 89.798 51.344 89.7729 51.2683L88.8605 48.6434C88.8354 48.5593 88.7517 48.5088 88.668 48.5088H83.0096C82.9259 48.5088 82.8422 48.5677 82.8171 48.6434L81.888 51.2683C81.8545 51.3524 81.7792 51.4029 81.6955 51.4029H80.3646C80.2223 51.4029 80.1218 51.2598 80.172 51.1252L84.5414 38.859C84.5749 38.7749 84.6502 38.7244 84.7339 38.7244H86.9102C86.9939 38.7244 87.0777 38.7833 87.1028 38.859L91.4805 51.1252C91.5307 51.2598 91.4387 51.4029 91.2963 51.4029ZM87.9398 46.8935C88.0821 46.8935 88.1825 46.7505 88.1323 46.6159L85.956 40.4996H85.6714L83.5118 46.6159C83.4616 46.7505 83.5621 46.8935 83.7044 46.8935H87.9398Z" fill="#C5B17F"/>
<path d="M104.731 51.4029H103.199C103.082 51.4029 102.99 51.3103 102.99 51.1925V46.0438C102.99 45.9344 102.898 45.8419 102.789 45.8419H97.1138C96.9966 45.8419 96.9046 45.9344 96.9046 46.0438V51.1925C96.9046 51.3103 96.8125 51.4029 96.6953 51.4029H95.1635C95.0463 51.4029 94.9626 51.3103 94.9626 51.1925V38.9264C94.9626 38.8086 95.0547 38.716 95.1635 38.716H96.6953C96.8125 38.716 96.9046 38.8086 96.9046 38.9264V43.8564C96.9046 43.9742 96.9966 44.0667 97.1138 44.0667H102.789C102.898 44.0667 102.99 43.9742 102.99 43.8564V38.9264C102.99 38.8086 103.082 38.716 103.199 38.716H104.731C104.848 38.716 104.94 38.8086 104.94 38.9264V51.1925C104.94 51.3103 104.848 51.4029 104.731 51.4029Z" fill="#C5B17F"/>
<path d="M91.3801 28.1577H88.2998V30.9845H91.3801V28.1577Z" fill="#C5B17F"/>
<path d="M94.4603 28.1577H91.3801V30.9845H94.4603V28.1577Z" fill="#C5B17F"/>
<path d="M97.5407 28.1577H94.4603V30.9845H97.5407V28.1577Z" fill="#C5B17F"/>
<path d="M57.011 28.1577H53.9307V30.9845H57.011V28.1577Z" fill="#C5B17F"/>
<path d="M60.0914 28.1577H57.011V30.9845H60.0914V28.1577Z" fill="#C5B17F"/>
<path d="M88.2998 28.1577H60.0914V30.9845H88.2998V28.1577Z" fill="#C5B17F"/>
<path d="M4.78789 11.4831L6.32805 12.3328L6.40338 12.2402C6.62939 11.9626 6.83865 11.5419 7.03954 10.9614C7.19857 10.4567 7.28228 10.1117 7.28228 9.90141C7.28228 9.66584 6.98931 9.32091 4.85485 8.37865H4.80463C4.6707 8.37865 4.51166 8.46278 4.11825 9.4471C3.74995 10.3725 3.74996 10.4651 3.74996 10.5156C3.74996 10.6838 3.86714 10.953 4.78789 11.4831Z" fill="#C5B17F"/>
<path d="M2.72039 12.9469C3.00499 12.9469 3.24773 12.6693 3.46536 12.0888C3.61603 11.6513 3.69136 11.2811 3.69136 10.9783C3.69136 10.6165 3.40677 10.28 2.82921 9.95188C2.04239 9.50599 1.4732 9.10217 1.13001 8.76565L0.987712 8.62263L0.904007 8.80771C0 10.8268 0 11.0119 0 11.0876C0 11.2811 0.159038 11.5672 1.3309 12.2402C2.51113 12.9469 2.64506 12.9469 2.72039 12.9469Z" fill="#C5B17F"/>
<path d="M7.39946 25.8946C7.39946 25.3309 7.31576 24.7672 7.13998 24.2204C7.00605 23.7997 6.52894 23.1688 5.69189 22.2938C7.14835 20.2831 8.00213 19.0211 8.24487 18.55C8.49599 18.062 8.62154 17.5068 8.62154 16.8926C8.62154 16.758 8.62154 16.3374 8.33695 16.3374C8.17791 16.3374 7.97702 16.4552 7.5585 17.288C6.47034 18.8865 5.49937 20.2494 4.66233 21.36C3.46536 20.3167 2.93802 19.8288 2.71202 19.5932C3.03847 19.5512 3.27284 19.5259 3.40677 19.5175C3.73321 19.4923 3.80018 19.3577 3.80018 19.2483C3.80018 19.1221 3.72484 18.9622 2.86269 18.4743C2.39394 18.2051 1.9252 17.9274 1.45645 17.6666C0.811932 17.246 0.694746 17.1534 0.678005 17.1366L0.57756 17.2207V17.0777H0.468744L0.460374 17.103C0.38504 17.145 0.326447 17.2292 0.326447 17.3806C0.326447 17.877 0.309706 18.5668 0.276224 19.4502C0.259484 19.568 0.292965 19.6437 0.334817 19.6858C0.401781 19.7615 0.502226 19.8035 0.652894 19.812C1.27231 20.9645 2.19305 22.0835 3.41514 23.1603C2.86269 24.0016 2.46928 24.7588 2.26002 25.4066C1.76616 26.8873 1.51505 28.082 1.51505 28.9653C1.51505 30.2105 1.98379 30.9003 2.89617 31.0265C2.93802 31.0349 2.97987 31.0349 3.0301 31.0349C3.50721 31.0349 4.18522 30.7237 5.08922 30.0927C6.0016 29.4449 6.54568 28.9401 6.75494 28.5363C7.18183 27.7034 7.39946 26.8116 7.39946 25.8946ZM6.39501 26.2732C6.39501 26.2984 6.38664 26.3236 6.3699 26.3489C6.05182 26.7022 5.57471 27.0892 4.94692 27.4931C4.19359 27.9726 3.59091 28.2166 3.14728 28.2166C2.69528 28.2166 2.63669 28.0147 2.63669 27.8127C2.63669 27.4089 2.83758 26.7864 3.23936 25.9535C3.61603 25.1711 4.00107 24.5233 4.38611 24.0353C6.12715 25.5665 6.39501 26.0965 6.39501 26.2732Z" fill="#C5B17F"/>
<path d="M28.0493 24.3971C27.4969 23.9596 26.777 23.7409 25.9065 23.7409C23.9478 23.7409 21.8134 24.7252 19.5617 26.6602C17.7621 28.4437 15.954 30.2357 14.146 32.0193C12.1622 33.9038 10.4798 34.8629 9.13215 34.8797C8.25325 34.8797 7.79288 34.2824 7.72591 33.0372C7.63384 31.2957 8.24488 29.1 9.55067 26.5003C9.73482 26.147 9.81852 25.903 9.81852 25.7516C9.81852 25.5497 9.69297 25.4823 9.58415 25.4823C9.32467 25.4823 9.09029 25.6758 8.8894 26.046C7.43295 28.6709 6.69635 31.1107 6.69635 33.2812C6.69635 34.3413 7.06465 35.2583 7.77614 36.0239C8.48762 36.7726 9.34978 37.1512 10.3542 37.1512H10.4045C11.4759 37.1428 12.8319 36.2931 14.5729 34.56C17.6784 31.4388 19.6873 29.5038 20.5578 28.7971C22.3156 27.3669 23.8725 26.6349 25.2034 26.6349C26.4924 26.6349 27.3462 27.0388 27.7898 27.8548C27.8317 27.9558 27.9489 28.2502 28.1916 28.2502C28.426 28.2502 28.585 27.9726 28.7441 27.2911C28.8529 26.8032 28.9115 26.391 28.9115 26.0797C28.8947 25.4066 28.6101 24.843 28.0493 24.3971Z" fill="#C5B17F"/>
<path d="M32.5778 25.9198C32.3685 23.8166 31.95 20.5607 31.3306 16.2364C30.9037 13.233 30.6609 11.3569 30.6023 10.6333C30.8618 10.8605 31.1046 11.054 31.3473 11.2138C31.4812 11.2896 31.5733 11.3316 31.6486 11.3316C31.7909 11.3316 31.8914 11.2307 31.8914 11.0708C31.8914 10.8857 31.7993 10.4651 31.0125 8.96756C30.6526 8.26086 30.2843 7.54576 29.916 6.84748C29.6648 6.30063 29.4807 6.08189 29.2965 6.08189C29.2296 6.08189 29.1208 6.10713 29.0622 6.2838C28.3591 8.21039 28.4428 8.35341 28.493 8.43754C28.8613 9.09375 28.945 9.29567 28.9617 9.33773C29.1961 11.4999 29.3551 13.0899 29.4472 14.2173C30.2089 20.3336 30.8116 24.9944 31.2469 28.0651C31.3557 28.9906 31.3473 29.8992 31.2301 30.7573C31.1129 31.5734 31.1799 31.7753 31.2636 31.8678C31.3054 31.9183 31.3557 31.9435 31.4143 31.9435C31.5314 31.9435 31.6654 31.8594 31.9249 31.4303C32.402 30.6311 32.6447 29.3103 32.6447 27.5099C32.6531 26.9967 32.628 26.4667 32.5778 25.9198Z" fill="#C5B17F"/>
<path d="M51.972 26.9462C51.2187 26.0208 50.683 24.6579 50.3649 22.9164C49.8125 19.9297 49.2684 17.6077 48.7578 16.0177C46.5982 9.37139 46.1295 9.37139 45.9035 9.37139C45.8281 9.37139 45.7193 9.40504 45.6272 9.53965L45.284 11.7355L45.2757 11.7691L45.284 11.8028C45.8449 13.6452 46.4141 15.3531 46.9581 16.8758C47.6613 18.9875 48.0463 20.1821 48.0882 20.4429L48.4062 22.0751C47.7784 23.3034 46.7824 24.5401 45.4515 25.7347C45.0329 26.1049 44.3633 26.6265 43.4426 27.2996C42.3628 28.082 41.1072 28.7634 39.7093 29.3103C38.6212 29.7225 37.9097 29.9328 37.5832 29.9328C36.1938 29.9328 35.4823 29.3355 35.4153 28.0904C35.3316 26.7443 36.0598 24.5737 37.5832 21.6292C37.8009 21.2085 37.9013 20.8804 37.9013 20.6449C37.9013 20.4177 37.7758 20.342 37.6502 20.342C37.4912 20.342 37.2735 20.4429 36.8048 21.2085C35.1809 23.9428 34.3523 26.4246 34.3523 28.5783C34.3523 31.3883 35.3232 32.8101 37.2317 32.8101C38.9811 32.8101 41.1407 31.8847 43.6351 30.0674C45.7612 28.511 47.293 27.0388 48.1719 25.7011C48.4397 25.2888 48.6573 24.7841 48.8415 24.1867C49.4944 26.8705 50.164 28.5615 50.8671 29.3523C51.8297 30.4292 52.9012 30.9761 54.0563 30.9761H54.1986V28.1577H54.0563C53.3029 28.1661 52.5998 27.7539 51.972 26.9462Z" fill="#C5B17F"/>
<path d="M99.9179 6.72128C100.428 7.28495 100.554 7.42798 100.588 7.45321C100.705 7.54576 100.814 7.58782 100.906 7.58782C100.947 7.58782 101.157 7.571 101.157 7.26813C101.157 6.53619 100.546 5.02185 99.2901 2.64096C98.9888 1.87538 98.8214 1.71553 98.654 1.71553C98.587 1.71553 98.4698 1.74918 98.4112 1.94268C98.0178 3.17098 97.8253 3.94498 97.8253 4.2815C97.8253 4.48342 97.8755 4.64326 97.9592 4.76105C98.1768 5.06391 98.2354 5.17328 98.2605 5.21535C98.3694 7.23448 98.5284 9.06852 98.7293 10.667C99.9346 20.0055 100.546 25.2972 100.546 26.3994C100.546 26.5676 100.529 26.6097 100.521 26.6265C100.269 27.1649 99.9597 27.5351 99.5998 27.7454C99.1478 28.0231 98.428 28.1577 97.457 28.1577H97.3147V30.976H97.457C98.746 30.976 99.876 30.3198 100.814 29.0158C101.584 27.9473 101.952 26.2227 101.902 23.8839V23.8754C101.182 16.9095 100.512 11.1381 99.9179 6.72128Z" fill="#C5B17F"/>
<path d="M106.254 25.1963C106.053 22.8322 105.635 19.1726 105.007 14.3098C104.58 10.9446 104.337 8.83295 104.279 8.01689C104.53 8.26086 104.773 8.47119 104.999 8.64786C105.133 8.74041 105.233 8.78247 105.308 8.78247C105.426 8.78247 105.56 8.70676 105.56 8.49643C105.56 8.16832 105.275 7.40274 104.681 6.14078C104.321 5.34155 103.952 4.54231 103.584 3.75148C103.283 3.03638 103.115 2.88494 102.948 2.88494C102.881 2.88494 102.764 2.91018 102.705 3.11209C102.002 5.27424 102.086 5.42568 102.136 5.51822C102.488 6.22491 102.588 6.4773 102.605 6.5362C102.839 8.95915 102.998 10.7511 103.09 12.0215C103.852 18.8865 104.455 24.1278 104.89 27.5856C104.999 28.6288 104.99 29.6468 104.873 30.6143C104.756 31.5397 104.823 31.7584 104.907 31.8594C104.948 31.9099 104.999 31.9351 105.066 31.9351C105.191 31.9351 105.325 31.8342 105.585 31.3546C106.062 30.4544 106.304 28.9821 106.304 26.963C106.321 26.3993 106.296 25.802 106.254 25.1963Z" fill="#C5B17F"/>
<path d="M137.074 21.646C137.074 21.646 137.635 17.7339 137.635 17.7255C137.66 17.532 134.555 15.5045 134.304 15.2942C132.244 13.5527 130.311 11.4831 129.172 9.00962C128.704 7.97482 128.428 6.87272 128.377 5.73696C128.352 5.16487 128.377 4.59278 128.436 4.02911C128.469 3.67576 128.72 3.01114 128.084 3.1205C127.917 3.14574 127.766 3.2467 127.624 3.34766C125.456 4.89565 123.799 7.92434 124.385 10.6418C124.77 12.4253 125.69 14.0659 126.862 15.4456C129.499 18.5248 133.316 20.3925 137.074 21.646Z" fill="#C5B17F"/>
<path d="M129.223 5.24059C129.223 5.24059 131.483 1.05931 135.241 4.57596C136.438 5.69489 137.267 7.71402 137.853 9.19471C139.585 13.519 139.803 19.1389 138.087 23.4716C137.978 23.7493 137.869 24.0353 137.894 24.3298C137.97 25.1795 138.355 25.3309 139.276 26.5256C139.192 26.4246 140.288 24.5653 140.364 24.4055C141.184 22.6892 141.912 20.9141 142.49 19.1053C144.507 12.7787 144.382 3.79355 137.526 0.504054C137.535 0.504054 132.094 -2.28066 129.223 5.24059Z" fill="#C5B17F"/>
<path d="M145.587 17.7676L149.303 16.4552C149.479 16.3963 149.839 12.6777 149.914 12.3664C150.5 9.72474 151.421 7.04939 153.087 4.88724C153.782 3.98705 154.627 3.23829 155.606 2.6662C156.1 2.38016 156.611 2.13618 157.138 1.92586C157.465 1.79125 158.168 1.71553 157.774 1.19392C157.674 1.05931 157.515 0.966771 157.364 0.891054C154.995 -0.328836 151.555 -0.404553 149.429 1.37901C148.031 2.54842 147.018 4.12166 146.34 5.81268C144.834 9.5733 144.959 13.8303 145.587 17.7676Z" fill="#C5B17F"/>
<path d="M156.427 3.1794C156.427 3.1794 161.164 3.25511 159.8 8.24404C159.365 9.8341 157.975 11.4999 156.937 12.7114C153.924 16.2532 149.069 19.0464 144.449 19.5259C144.156 19.5596 143.846 19.5932 143.603 19.7531C142.892 20.2158 142.934 20.628 142.306 21.9993C142.364 21.8816 144.507 21.9993 144.683 21.9909C146.575 21.932 148.475 21.7554 150.35 21.4273C156.862 20.2999 164.73 16.0261 164.454 8.39547C164.454 8.39547 164.387 2.26238 156.427 3.1794Z" fill="#C5B17F"/>
<path d="M153.589 23.9007L156.544 26.5087C156.686 26.6349 160.076 25.129 160.394 25.0364C162.964 24.254 165.743 23.7493 168.43 24.1447C169.543 24.3129 170.615 24.6831 171.586 25.2636C172.079 25.5496 172.54 25.8862 172.983 26.2395C173.26 26.4583 173.67 27.0387 173.938 26.433C174.005 26.2732 174.005 26.0965 173.996 25.9282C173.896 23.2529 172.272 20.2074 169.677 19.223C167.978 18.5752 166.111 18.4575 164.32 18.693C160.327 19.223 156.695 21.4188 153.589 23.9007Z" fill="#C5B17F"/>
<path d="M171.56 26.2395C171.56 26.2395 173.812 30.4292 168.823 31.6743C167.233 32.0697 165.107 31.6659 163.55 31.3631C159.005 30.4629 154.2 27.5772 151.513 23.7661C151.346 23.5221 151.162 23.2781 150.902 23.1351C150.157 22.7397 149.814 22.9753 148.316 23.1015C148.45 23.093 149.395 25.028 149.488 25.1795C150.467 26.8116 151.555 28.3848 152.752 29.8655C156.929 35.0143 164.487 39.8097 170.966 35.8304C170.974 35.822 176.265 32.7596 171.56 26.2395Z" fill="#C5B17F"/>
<path d="M152.258 33.2896L151.53 37.1765C151.497 37.3615 154.51 39.5321 154.753 39.7508C156.736 41.5765 158.586 43.7218 159.607 46.2541C160.034 47.3057 160.26 48.4163 160.26 49.552C160.26 50.1241 160.21 50.6962 160.135 51.2599C160.085 51.6048 159.808 52.261 160.453 52.1853C160.62 52.1601 160.779 52.0759 160.922 51.9834C163.157 50.5279 164.939 47.575 164.462 44.8323C164.153 43.0319 163.307 41.3577 162.186 39.9275C159.691 36.7306 155.958 34.703 152.258 33.2896Z" fill="#C5B17F"/>
<path d="M159.407 50.0147C159.407 50.0147 156.971 54.095 153.363 50.4186C152.216 49.2491 151.471 47.2048 150.944 45.6988C149.396 41.3072 149.421 35.6789 151.312 31.4219C151.43 31.1527 151.555 30.8667 151.538 30.5722C151.497 29.7225 151.12 29.5458 150.249 28.3175C150.325 28.4269 149.153 30.2357 149.069 30.3871C148.173 32.0697 147.378 33.8112 146.717 35.5948C144.432 41.8289 144.181 50.8055 150.885 54.3895C150.902 54.3895 156.217 57.4098 159.407 50.0147Z" fill="#C5B17F"/>
<path d="M143.394 36.7979L139.728 38.2449C139.552 38.3122 139.326 42.0392 139.267 42.3589C138.782 45.0174 137.945 47.7264 136.363 49.9474C135.701 50.8729 134.881 51.6469 133.927 52.2526C133.45 52.5555 132.939 52.8163 132.42 53.0434C132.102 53.1865 131.399 53.2958 131.809 53.8006C131.918 53.9352 132.077 54.0194 132.228 54.0867C134.638 55.2224 138.079 55.1719 140.138 53.3127C141.494 52.0928 142.456 50.4859 143.067 48.7696C144.432 44.9585 144.164 40.7015 143.394 36.7979Z" fill="#C5B17F"/>
<path d="M133.082 51.7646C133.082 51.7646 128.344 51.8572 129.533 46.8262C129.909 45.2277 131.248 43.5115 132.236 42.2579C135.124 38.6151 139.878 35.6453 144.474 34.9975C144.767 34.9554 145.068 34.9133 145.311 34.7451C146.006 34.2571 145.947 33.8449 146.524 32.4567C146.474 32.5745 144.323 32.5409 144.147 32.5493C142.256 32.6755 140.364 32.9195 138.506 33.3149C132.044 34.6778 124.326 39.2292 124.87 46.843C124.879 46.843 125.155 52.9677 133.082 51.7646Z" fill="#C5B17F"/>
<path d="M135.551 31.3715L132.638 28.7129C132.496 28.5867 129.08 30.0338 128.771 30.1263C126.184 30.8667 123.397 31.321 120.718 30.8835C119.605 30.6984 118.542 30.303 117.579 29.7141C117.094 29.4196 116.642 29.0747 116.198 28.7129C115.931 28.4858 115.52 27.9053 115.253 28.5026C115.186 28.6625 115.177 28.8391 115.186 29.0074C115.244 31.6827 116.818 34.7619 119.388 35.7883C121.078 36.4613 122.937 36.6128 124.736 36.4109C128.729 35.9313 132.404 33.7944 135.551 31.3715Z" fill="#C5B17F"/>
<path d="M117.621 28.7298C117.621 28.7298 115.437 24.5064 120.442 23.3454C122.041 22.9753 124.159 23.4127 125.707 23.7493C130.236 24.7252 134.998 27.6866 137.618 31.5397C137.786 31.7837 137.962 32.0361 138.221 32.1791C138.958 32.5913 139.309 32.3558 140.799 32.2548C140.665 32.2632 139.753 30.3114 139.661 30.16C138.706 28.511 137.652 26.921 136.48 25.4234C132.395 20.2074 124.912 15.2857 118.366 19.1557C118.366 19.1557 113.026 22.1255 117.621 28.7298Z" fill="#C5B17F"/>
</svg>
