<svg width="800" height="776" viewBox="0 0 800 776" fill="none" xmlns="http://www.w3.org/2000/svg">
<g opacity="0.1">
<mask id="path-1-inside-1_6_3231" fill="white">
<path d="M293.664 305.405C293.664 305.405 301.597 250.21 301.597 250.091C301.953 247.361 258.025 218.754 254.472 215.787C225.345 191.216 197.994 162.015 181.891 127.118C175.26 112.517 171.353 96.9678 170.642 80.9432C170.287 72.8716 170.642 64.8 171.471 56.8471C171.945 51.8617 175.497 42.4844 166.498 44.0275C164.13 44.3836 161.999 45.808 159.986 47.2324C129.319 69.0732 105.875 111.805 114.163 150.145C119.61 175.31 132.634 198.456 149.211 217.923C186.508 261.367 240.501 287.719 293.664 305.405Z"/>
<path d="M182.601 73.94C182.601 73.94 214.57 14.946 267.734 64.5627C284.665 80.3498 296.387 108.838 304.676 129.729C329.185 190.741 332.264 270.033 307.991 331.163C306.452 335.08 304.913 339.116 305.268 343.271C306.333 355.259 311.78 357.396 324.804 374.252C323.62 372.827 339.131 346.594 340.197 344.339C351.801 320.124 362.102 295.078 370.272 269.558C398.807 180.295 397.031 53.5235 300.058 7.11175C300.176 7.11175 223.214 -32.178 182.601 73.94Z"/>
<path d="M414.081 250.685L466.653 232.167C469.139 231.336 474.231 178.871 475.296 174.479C483.585 137.207 496.609 99.4605 520.171 68.9546C529.999 56.2536 541.958 45.6893 555.811 37.6177C562.797 33.5819 570.02 30.1396 577.479 27.1721C582.097 25.2729 592.043 24.2046 586.478 16.8452C585.057 14.946 582.807 13.6403 580.676 12.572C547.168 -4.63958 498.503 -5.70788 468.429 19.4566C448.655 35.9559 434.328 58.1528 424.737 82.0116C403.425 135.071 405.201 195.133 414.081 250.685Z"/>
<path d="M567.417 44.8584C567.417 44.8584 634.434 45.9267 615.134 116.316C608.977 138.75 589.321 162.253 574.639 179.346C532.014 229.318 463.339 268.727 397.98 275.493C393.836 275.968 389.455 276.442 386.021 278.698C375.957 285.226 376.549 291.043 367.668 310.391C368.497 308.729 398.809 310.391 401.296 310.272C428.055 309.441 454.933 306.948 481.455 302.319C573.574 286.413 684.874 226.114 680.967 118.452C680.967 118.452 680.019 31.9201 567.417 44.8584Z"/>
<path d="M527.277 337.217L569.073 374.014C571.086 375.795 619.04 354.547 623.539 353.242C659.889 342.202 699.2 335.08 737.207 340.659C752.955 343.033 768.111 348.256 781.846 356.446C788.832 360.482 795.344 365.23 801.619 370.216C805.527 373.302 811.329 381.492 815.118 372.946C816.065 370.69 816.065 368.198 815.946 365.824C814.525 328.077 791.555 285.108 754.85 271.22C730.814 262.08 704.41 260.418 679.071 263.742C622.592 271.22 571.205 302.2 527.277 337.217Z"/>
<path d="M781.49 370.216C781.49 370.216 813.341 429.328 742.772 446.896C720.275 452.475 690.201 446.777 668.177 442.504C603.884 429.803 535.92 389.089 497.912 335.318C495.544 331.876 492.939 328.433 489.268 326.415C478.73 320.836 473.876 324.16 452.681 325.941C454.576 325.822 467.956 353.123 469.258 355.26C483.111 378.287 498.504 400.484 515.436 421.375C574.519 494.02 681.439 561.679 773.083 505.534C773.202 505.415 848.034 462.208 781.49 370.216Z"/>
<path d="M508.451 469.686L498.15 524.526C497.676 527.137 540.302 557.762 543.736 560.848C571.798 586.606 597.965 616.875 612.41 652.603C618.449 667.441 621.646 683.109 621.646 699.134C621.646 707.206 620.935 715.277 619.87 723.23C619.159 728.097 615.252 737.355 624.369 736.287C626.737 735.931 628.987 734.744 631 733.438C662.614 712.903 687.834 671.239 681.085 632.543C676.704 607.141 664.745 583.52 648.879 563.341C613.594 518.235 560.786 489.628 508.451 469.686Z"/>
<path d="M609.568 705.662C609.568 705.662 575.112 763.232 524.08 711.36C507.859 694.861 497.321 666.016 489.861 644.769C467.956 582.808 468.312 503.397 495.071 443.335C496.729 439.537 498.505 435.501 498.268 431.346C497.676 419.358 492.347 416.865 480.033 399.535C481.099 401.078 464.523 426.598 463.339 428.735C450.669 452.475 439.421 477.046 430.067 502.21C397.743 590.167 394.19 716.82 489.032 767.386C489.269 767.386 564.456 810 609.568 705.662Z"/>
<path d="M383.06 519.185L331.198 539.601C328.712 540.551 325.515 593.135 324.687 597.645C317.819 635.155 305.978 673.376 283.6 704.713C274.246 717.77 262.643 728.69 249.144 737.237C242.395 741.51 235.173 745.19 227.832 748.395C223.332 750.413 213.386 751.956 219.188 759.078C220.727 760.977 222.977 762.164 225.108 763.114C259.209 779.138 307.873 778.426 337 752.193C356.182 734.982 369.799 712.31 378.442 688.095C397.742 634.324 393.953 574.261 383.06 519.185Z"/>
<path d="M237.186 730.352C237.186 730.352 170.17 731.658 186.983 660.675C192.311 638.122 211.256 613.907 225.228 596.221C266.077 544.824 333.331 502.923 398.335 493.783C402.479 493.189 406.742 492.596 410.175 490.222C420.003 483.337 419.174 477.521 427.344 457.935C426.633 459.597 396.204 459.122 393.717 459.241C366.958 461.021 340.198 464.464 313.913 470.043C222.505 489.272 113.336 553.489 121.032 660.912C121.15 660.912 125.058 747.326 237.186 730.352Z"/>
<path d="M272.116 442.623L230.911 405.113C228.898 403.333 180.589 423.749 176.208 425.055C139.621 435.501 100.193 441.911 62.3032 435.738C46.5554 433.127 31.518 427.548 17.9015 419.239C11.0341 415.084 4.64038 410.218 -1.63505 405.113C-5.42399 401.909 -11.2259 393.718 -15.0149 402.146C-15.9621 404.401 -16.0805 406.894 -15.9621 409.268C-15.1333 447.015 7.12672 490.459 43.4768 504.94C67.3945 514.436 93.6803 516.573 119.137 513.724C175.616 506.958 227.596 476.808 272.116 442.623Z"/>
<path d="M18.4938 405.351C18.4938 405.351 -12.4098 345.763 58.396 329.383C81.0112 324.16 110.968 330.332 132.872 335.08C196.929 348.85 264.301 390.632 301.362 444.997C303.73 448.439 306.216 452 309.887 454.018C320.306 459.834 325.28 456.511 346.356 455.086C344.461 455.205 331.555 427.666 330.252 425.53C316.754 402.265 301.835 379.83 285.259 358.702C227.477 285.108 121.624 215.668 29.0318 270.27C29.0318 270.27 -46.5102 312.171 18.4938 405.351Z"/>
</mask>
<path d="M293.664 305.405C293.664 305.405 301.597 250.21 301.597 250.091C301.953 247.361 258.025 218.754 254.472 215.787C225.345 191.216 197.994 162.015 181.891 127.118C175.26 112.517 171.353 96.9678 170.642 80.9432C170.287 72.8716 170.642 64.8 171.471 56.8471C171.945 51.8617 175.497 42.4844 166.498 44.0275C164.13 44.3836 161.999 45.808 159.986 47.2324C129.319 69.0732 105.875 111.805 114.163 150.145C119.61 175.31 132.634 198.456 149.211 217.923C186.508 261.367 240.501 287.719 293.664 305.405Z" stroke="white" stroke-width="2" mask="url(#path-1-inside-1_6_3231)"/>
<path d="M182.601 73.94C182.601 73.94 214.57 14.946 267.734 64.5627C284.665 80.3498 296.387 108.838 304.676 129.729C329.185 190.741 332.264 270.033 307.991 331.163C306.452 335.08 304.913 339.116 305.268 343.271C306.333 355.259 311.78 357.396 324.804 374.252C323.62 372.827 339.131 346.594 340.197 344.339C351.801 320.124 362.102 295.078 370.272 269.558C398.807 180.295 397.031 53.5235 300.058 7.11175C300.176 7.11175 223.214 -32.178 182.601 73.94Z" stroke="white" stroke-width="2" mask="url(#path-1-inside-1_6_3231)"/>
<path d="M414.081 250.685L466.653 232.167C469.139 231.336 474.231 178.871 475.296 174.479C483.585 137.207 496.609 99.4605 520.171 68.9546C529.999 56.2536 541.958 45.6893 555.811 37.6177C562.797 33.5819 570.02 30.1396 577.479 27.1721C582.097 25.2729 592.043 24.2046 586.478 16.8452C585.057 14.946 582.807 13.6403 580.676 12.572C547.168 -4.63958 498.503 -5.70788 468.429 19.4566C448.655 35.9559 434.328 58.1528 424.737 82.0116C403.425 135.071 405.201 195.133 414.081 250.685Z" stroke="white" stroke-width="2" mask="url(#path-1-inside-1_6_3231)"/>
<path d="M567.417 44.8584C567.417 44.8584 634.434 45.9267 615.134 116.316C608.977 138.75 589.321 162.253 574.639 179.346C532.014 229.318 463.339 268.727 397.98 275.493C393.836 275.968 389.455 276.442 386.021 278.698C375.957 285.226 376.549 291.043 367.668 310.391C368.497 308.729 398.809 310.391 401.296 310.272C428.055 309.441 454.933 306.948 481.455 302.319C573.574 286.413 684.874 226.114 680.967 118.452C680.967 118.452 680.019 31.9201 567.417 44.8584Z" stroke="white" stroke-width="2" mask="url(#path-1-inside-1_6_3231)"/>
<path d="M527.277 337.217L569.073 374.014C571.086 375.795 619.04 354.547 623.539 353.242C659.889 342.202 699.2 335.08 737.207 340.659C752.955 343.033 768.111 348.256 781.846 356.446C788.832 360.482 795.344 365.23 801.619 370.216C805.527 373.302 811.329 381.492 815.118 372.946C816.065 370.69 816.065 368.198 815.946 365.824C814.525 328.077 791.555 285.108 754.85 271.22C730.814 262.08 704.41 260.418 679.071 263.742C622.592 271.22 571.205 302.2 527.277 337.217Z" stroke="white" stroke-width="2" mask="url(#path-1-inside-1_6_3231)"/>
<path d="M781.49 370.216C781.49 370.216 813.341 429.328 742.772 446.896C720.275 452.475 690.201 446.777 668.177 442.504C603.884 429.803 535.92 389.089 497.912 335.318C495.544 331.876 492.939 328.433 489.268 326.415C478.73 320.836 473.876 324.16 452.681 325.941C454.576 325.822 467.956 353.123 469.258 355.26C483.111 378.287 498.504 400.484 515.436 421.375C574.519 494.02 681.439 561.679 773.083 505.534C773.202 505.415 848.034 462.208 781.49 370.216Z" stroke="white" stroke-width="2" mask="url(#path-1-inside-1_6_3231)"/>
<path d="M508.451 469.686L498.15 524.526C497.676 527.137 540.302 557.762 543.736 560.848C571.798 586.606 597.965 616.875 612.41 652.603C618.449 667.441 621.646 683.109 621.646 699.134C621.646 707.206 620.935 715.277 619.87 723.23C619.159 728.097 615.252 737.355 624.369 736.287C626.737 735.931 628.987 734.744 631 733.438C662.614 712.903 687.834 671.239 681.085 632.543C676.704 607.141 664.745 583.52 648.879 563.341C613.594 518.235 560.786 489.628 508.451 469.686Z" stroke="white" stroke-width="2" mask="url(#path-1-inside-1_6_3231)"/>
<path d="M609.568 705.662C609.568 705.662 575.112 763.232 524.08 711.36C507.859 694.861 497.321 666.016 489.861 644.769C467.956 582.808 468.312 503.397 495.071 443.335C496.729 439.537 498.505 435.501 498.268 431.346C497.676 419.358 492.347 416.865 480.033 399.535C481.099 401.078 464.523 426.598 463.339 428.735C450.669 452.475 439.421 477.046 430.067 502.21C397.743 590.167 394.19 716.82 489.032 767.386C489.269 767.386 564.456 810 609.568 705.662Z" stroke="white" stroke-width="2" mask="url(#path-1-inside-1_6_3231)"/>
<path d="M383.06 519.185L331.198 539.601C328.712 540.551 325.515 593.135 324.687 597.645C317.819 635.155 305.978 673.376 283.6 704.713C274.246 717.77 262.643 728.69 249.144 737.237C242.395 741.51 235.173 745.19 227.832 748.395C223.332 750.413 213.386 751.956 219.188 759.078C220.727 760.977 222.977 762.164 225.108 763.114C259.209 779.138 307.873 778.426 337 752.193C356.182 734.982 369.799 712.31 378.442 688.095C397.742 634.324 393.953 574.261 383.06 519.185Z" stroke="white" stroke-width="2" mask="url(#path-1-inside-1_6_3231)"/>
<path d="M237.186 730.352C237.186 730.352 170.17 731.658 186.983 660.675C192.311 638.122 211.256 613.907 225.228 596.221C266.077 544.824 333.331 502.923 398.335 493.783C402.479 493.189 406.742 492.596 410.175 490.222C420.003 483.337 419.174 477.521 427.344 457.935C426.633 459.597 396.204 459.122 393.717 459.241C366.958 461.021 340.198 464.464 313.913 470.043C222.505 489.272 113.336 553.489 121.032 660.912C121.15 660.912 125.058 747.326 237.186 730.352Z" stroke="white" stroke-width="2" mask="url(#path-1-inside-1_6_3231)"/>
<path d="M272.116 442.623L230.911 405.113C228.898 403.333 180.589 423.749 176.208 425.055C139.621 435.501 100.193 441.911 62.3032 435.738C46.5554 433.127 31.518 427.548 17.9015 419.239C11.0341 415.084 4.64038 410.218 -1.63505 405.113C-5.42399 401.909 -11.2259 393.718 -15.0149 402.146C-15.9621 404.401 -16.0805 406.894 -15.9621 409.268C-15.1333 447.015 7.12672 490.459 43.4768 504.94C67.3945 514.436 93.6803 516.573 119.137 513.724C175.616 506.958 227.596 476.808 272.116 442.623Z" stroke="white" stroke-width="2" mask="url(#path-1-inside-1_6_3231)"/>
<path d="M18.4938 405.351C18.4938 405.351 -12.4098 345.763 58.396 329.383C81.0112 324.16 110.968 330.332 132.872 335.08C196.929 348.85 264.301 390.632 301.362 444.997C303.73 448.439 306.216 452 309.887 454.018C320.306 459.834 325.28 456.511 346.356 455.086C344.461 455.205 331.555 427.666 330.252 425.53C316.754 402.265 301.835 379.83 285.259 358.702C227.477 285.108 121.624 215.668 29.0318 270.27C29.0318 270.27 -46.5102 312.171 18.4938 405.351Z" stroke="white" stroke-width="2" mask="url(#path-1-inside-1_6_3231)"/>
</g>
</svg>
