<svg width="172" height="143" viewBox="0 0 172 143" fill="none" xmlns="http://www.w3.org/2000/svg">
<g opacity="0.12">
<path d="M90.7087 5.84239L93.2053 -10.3537C93.2053 -11.1843 80.3063 -19.49 79.4741 -20.3206C71.1522 -27.3804 62.8303 -36.1014 58.2532 -46.0682C56.1727 -50.2211 55.3405 -54.7892 54.9244 -59.3573C54.9244 -61.8491 54.9244 -63.9255 55.3405 -66.4172C55.3405 -67.663 56.5888 -70.57 53.6762 -70.1548C52.844 -70.1548 52.4279 -69.7395 51.5957 -69.3242C42.4416 -63.0949 35.784 -50.6364 38.2806 -39.4237C39.945 -31.9485 43.6899 -25.304 48.683 -19.9053C59.0854 -7.03144 74.897 0.858978 90.7087 5.84239Z" fill="#C5B17F"/>
<path d="M58.2531 -61.4335C58.2531 -61.4335 67.4072 -78.4602 83.2188 -64.3405C88.212 -59.7723 91.5408 -51.4666 94.0373 -45.2374C101.111 -27.3801 101.943 -4.53945 94.8695 13.3178C94.4534 14.5637 94.0373 15.8095 94.0373 17.0554C94.4534 20.3776 96.1178 21.2082 99.8627 26.1916C99.4466 25.7763 104.024 18.3012 104.44 17.4706C107.769 10.4108 110.681 2.93568 113.178 -4.12417C121.5 -30.2871 121.084 -66.8322 92.789 -80.5366C92.373 -80.9519 69.9038 -92.5799 58.2531 -61.4335Z" fill="#C5B17F"/>
<path d="M125.661 -9.93818L141.056 -15.3369C141.889 -15.7522 143.137 -30.7024 143.553 -31.9483C146.05 -43.161 149.794 -53.9584 156.868 -63.0947C159.781 -66.8322 163.109 -69.7392 167.27 -72.2309C169.351 -73.4768 171.431 -74.3074 173.512 -75.1379C174.76 -75.5532 177.673 -75.9685 176.008 -78.0449C175.592 -78.8755 175.176 -78.8755 174.344 -79.2908C164.358 -84.2742 150.21 -84.6895 141.472 -77.2143C135.647 -72.2309 131.486 -66.0017 128.574 -58.9418C122.748 -43.5763 123.164 -26.1343 125.661 -9.93818Z" fill="#C5B17F"/>
<path d="M170.599 -70.1548C170.599 -70.1548 190.156 -69.7395 184.33 -49.3906C182.666 -42.746 176.841 -36.1015 172.68 -31.118C160.197 -16.5831 140.224 -4.95508 121.084 -3.29394C119.836 -3.29394 118.587 -2.87866 117.755 -2.46338C114.842 -0.386948 114.842 1.27419 112.346 6.6729C112.762 6.25761 121.5 6.6729 122.332 6.6729C130.238 6.25761 138.144 5.84232 145.634 4.18118C172.68 -0.386955 205.135 -17.8289 203.887 -49.3906C203.887 -48.56 203.471 -73.8924 170.599 -70.1548Z" fill="#C5B17F"/>
<path d="M158.949 14.9787L171.015 25.7761C171.431 26.1914 185.579 19.9621 186.827 19.5468C197.646 16.2245 208.88 14.1481 220.115 15.8093C224.692 16.6398 229.269 17.8857 233.014 20.3774C235.094 21.6233 236.759 22.8691 238.839 24.5302C240.087 25.3608 241.752 27.8525 242.584 25.3608C243 24.5302 243 24.115 243 23.2844C243 12.487 236.342 0.0284424 225.524 -4.12441C218.45 -6.61612 210.961 -7.44669 203.471 -6.20084C186.827 -4.12441 171.848 5.01186 158.949 14.9787Z" fill="#C5B17F"/>
<path d="M233.43 24.946C233.43 24.946 242.584 41.9727 222.195 47.3714C215.537 49.0325 206.799 47.3714 200.558 46.1255C181.834 42.3879 161.861 30.76 150.627 14.9791C149.794 14.1486 148.962 12.9027 148.13 12.4874C145.217 10.8263 143.553 11.6569 137.311 12.4874C137.728 12.4874 141.889 20.3778 142.305 21.2084C146.466 27.853 151.043 34.4975 155.62 40.3115C172.68 61.4911 204.303 81.0094 230.933 64.8133C230.933 63.9828 252.57 51.5242 233.43 24.946Z" fill="#C5B17F"/>
<path d="M153.539 53.6003L150.627 69.3811C150.627 70.2117 163.109 78.9326 163.942 79.7632C172.264 87.2383 179.753 95.9593 183.914 106.341C185.579 110.494 186.411 115.062 186.411 120.046C186.411 122.538 186.411 124.614 185.995 127.106C185.579 128.352 184.746 131.259 187.243 130.843C188.075 130.843 188.491 130.428 189.323 130.013C198.478 124.199 205.967 111.74 203.887 100.527C202.638 93.0523 198.894 86.4078 194.317 80.1785C184.33 67.7199 168.519 59.4142 153.539 53.6003Z" fill="#C5B17F"/>
<path d="M183.082 122.538C183.082 122.538 173.096 139.149 158.116 124.199C153.539 119.215 150.21 110.91 148.13 104.68C141.888 86.8231 141.888 63.5671 149.794 46.1252C150.21 44.8793 150.626 44.0487 150.626 42.8029C150.626 39.4806 148.962 38.65 145.217 33.6666C145.633 34.0819 140.64 41.557 140.224 41.9723C136.479 49.0322 133.15 56.092 130.654 63.5671C121.084 89.3148 120.251 125.86 147.714 140.81C147.714 140.395 169.767 152.853 183.082 122.538Z" fill="#C5B17F"/>
<path d="M116.923 68.1355L101.943 73.9494C101.111 74.3647 100.279 89.315 99.8627 90.9762C97.7822 101.774 94.4534 112.986 87.7959 122.123C84.8832 125.86 81.5545 129.182 77.8096 131.674C75.7291 132.92 73.6486 134.166 71.5682 134.996C70.3199 135.412 67.4072 135.827 69.0716 138.319C69.4877 138.734 70.3199 139.149 70.736 139.564C80.7223 144.133 94.8695 144.133 103.608 136.242C109.017 131.259 113.178 124.614 115.674 117.554C121.084 101.774 119.835 84.3316 116.923 68.1355Z" fill="#C5B17F"/>
<path d="M74.0648 129.597C74.0648 129.597 54.5083 130.013 59.5015 109.248C61.1658 102.604 66.5751 95.5441 70.736 90.5606C82.8028 75.6104 102.359 63.5671 121.5 60.6601C122.748 60.6601 123.996 60.2449 124.829 59.4143C127.741 57.3379 127.325 55.6767 129.822 49.8627C129.406 50.278 120.668 50.278 119.835 50.278C111.93 50.6933 104.024 51.9392 96.534 53.6003C69.9039 58.999 37.8645 77.6868 39.945 109.248C39.945 109.248 41.1932 134.581 74.0648 129.597Z" fill="#C5B17F"/>
<path d="M84.4675 45.7101L72.4007 34.9126C71.9846 34.4974 57.8373 40.3113 56.589 40.7266C45.7705 43.6336 34.536 45.7101 23.3014 43.6336C18.7243 42.8031 14.1473 41.1419 10.4024 38.6502C8.32192 37.4043 6.65753 36.1585 4.57705 34.4974C3.32877 33.6668 1.66438 31.1751 0.832192 33.6668C0 34.4974 0 35.3279 0 36.1585C0.416096 46.9559 6.65753 59.8298 17.476 63.9826C24.5497 66.8896 32.0394 67.3049 39.5291 66.4743C56.1729 64.3979 71.1524 55.6769 84.4675 45.7101Z" fill="#C5B17F"/>
<path d="M9.98601 34.9128C9.98601 34.9128 0.831898 17.4709 21.6367 12.9027C28.2942 11.2416 37.0322 13.318 43.2737 14.5639C61.998 18.7167 81.5545 30.76 92.373 46.5408C93.2052 47.3714 93.6213 48.6172 94.8696 49.0325C97.7822 50.6937 99.4466 49.8631 105.688 49.4478C105.272 49.4478 101.527 41.5574 101.111 40.7268C96.95 34.0823 92.7891 27.4377 87.7959 21.2084C70.736 -0.386383 39.9449 -20.3201 12.8987 -4.53924C13.3148 -4.53924 -8.73831 7.91931 9.98601 34.9128Z" fill="#C5B17F"/>
</g>
</svg>
