<svg width="1234" height="836" viewBox="0 0 1234 836" fill="none" xmlns="http://www.w3.org/2000/svg">
<g opacity="0.12">
<path d="M460.513 348.288L473.188 266.017C473.188 261.798 407.702 219.608 403.477 215.389C361.228 179.528 318.979 135.228 295.742 84.6003C285.18 63.5053 280.955 40.3008 278.842 17.0963C278.842 4.43932 278.842 -6.10818 280.955 -18.7652C280.955 -25.0937 287.292 -39.8602 272.505 -37.7507C268.28 -37.7507 266.168 -35.6412 261.943 -33.5317C215.469 -1.88918 181.67 61.3958 194.344 118.352C202.794 156.323 221.806 190.075 247.156 217.499C299.967 282.893 380.24 322.974 460.513 348.288Z" fill="#C5B17F"/>
<path d="M295.742 6.55027C295.742 6.55027 342.215 -79.9392 422.489 -8.21622C447.838 14.9883 464.738 57.1783 477.412 88.8208C513.324 179.529 517.549 295.552 481.637 386.26C479.525 392.589 477.412 398.917 477.412 405.246C479.525 422.122 487.975 426.341 506.987 451.655C504.874 449.545 528.111 411.574 530.224 407.355C547.123 371.494 561.91 333.523 574.585 297.661C616.834 164.763 614.722 -20.8732 471.075 -90.4867C468.962 -92.5962 354.89 -151.662 295.742 6.55027Z" fill="#C5B17F"/>
<path d="M637.96 268.128L716.12 240.705C720.345 238.595 726.683 162.653 728.795 156.325C741.47 99.3681 760.482 44.5211 796.394 -1.88791C811.181 -20.8734 828.08 -35.6399 849.205 -48.2969C859.767 -54.6254 870.329 -58.8444 880.892 -63.0634C887.229 -65.1729 902.016 -67.2824 893.566 -77.8299C891.454 -82.0489 889.341 -82.0489 885.116 -84.1584C834.418 -109.472 762.594 -111.582 718.233 -73.6109C688.659 -48.2969 667.534 -16.6544 652.747 19.2071C623.173 97.2586 625.285 185.858 637.96 268.128Z" fill="#C5B17F"/>
<path d="M866.105 -37.751C866.105 -37.751 965.39 -35.6415 935.816 67.724C927.366 101.476 897.792 135.228 876.667 160.542C813.294 234.375 711.896 293.441 614.723 301.879C608.386 301.879 602.049 303.988 597.824 306.098C583.037 316.645 583.037 325.083 570.362 352.507C572.474 350.397 616.836 352.507 621.061 352.507C661.197 350.397 701.334 348.288 739.358 339.85C876.667 316.645 1041.44 228.046 1035.1 67.724C1035.1 71.943 1032.99 -56.7365 866.105 -37.751Z" fill="#C5B17F"/>
<path d="M806.956 394.697L868.217 449.544C870.33 451.654 942.153 420.011 948.491 417.902C1003.41 401.026 1060.45 390.478 1117.49 398.916C1140.72 403.135 1163.96 409.464 1182.97 422.121C1193.54 428.449 1201.98 434.778 1212.55 443.216C1218.88 447.435 1227.33 460.092 1231.56 447.435C1233.67 443.216 1233.67 441.106 1233.67 436.887C1233.67 382.04 1199.87 318.755 1144.95 297.66C1109.04 285.003 1071.01 280.784 1032.99 287.113C948.491 297.66 872.442 344.069 806.956 394.697Z" fill="#C5B17F"/>
<path d="M1185.08 445.327C1185.08 445.327 1231.56 531.817 1128.05 559.24C1094.25 567.678 1049.89 559.24 1018.2 552.912C923.14 533.926 821.743 474.86 764.706 394.699C760.482 390.48 756.257 384.152 752.032 382.042C737.245 373.604 728.795 377.823 697.108 382.042C699.22 382.042 720.345 422.123 722.457 426.342C743.582 460.094 766.819 493.846 790.056 523.379C876.666 630.963 1037.21 730.11 1172.41 647.839C1172.41 643.62 1282.26 580.335 1185.08 445.327Z" fill="#C5B17F"/>
<path d="M779.494 590.881L764.706 671.042C764.706 675.261 828.08 719.561 832.305 723.78C874.554 761.751 912.578 806.05 933.702 858.787C942.152 879.883 946.377 903.087 946.377 928.401C946.377 941.058 946.377 951.606 944.265 964.263C942.152 970.591 937.927 985.358 950.602 983.248C954.827 983.248 956.939 981.139 961.164 979.029C1007.64 949.496 1045.66 886.211 1035.1 829.255C1028.76 791.284 1009.75 757.531 986.514 725.889C935.815 662.604 855.542 620.414 779.494 590.881Z" fill="#C5B17F"/>
<path d="M929.477 941.058C929.477 941.058 878.778 1025.44 802.73 949.496C779.493 924.182 762.593 881.992 752.031 850.35C720.344 759.641 720.344 641.509 760.481 552.91C762.593 546.582 764.706 542.363 764.706 536.034C764.706 519.158 756.256 514.939 737.244 489.625C739.356 491.735 714.007 529.706 711.895 531.815C692.883 567.677 675.983 603.538 663.308 641.509C614.722 772.298 610.497 957.934 749.919 1033.88C749.919 1031.77 861.879 1095.05 929.477 941.058Z" fill="#C5B17F"/>
<path d="M593.597 664.715L517.549 694.248C513.324 696.357 509.099 772.299 506.987 780.737C496.424 835.584 479.525 892.541 445.726 938.95C430.938 957.935 414.039 974.811 395.027 987.468C384.464 993.797 373.902 1000.13 363.34 1004.34C357.003 1006.45 342.215 1008.56 350.665 1021.22C352.778 1023.33 357.003 1025.44 359.115 1027.55C409.814 1050.75 481.637 1050.75 525.999 1010.67C553.461 985.359 574.585 951.607 587.26 915.745C614.722 835.584 608.384 746.985 593.597 664.715Z" fill="#C5B17F"/>
<path d="M376.015 976.92C376.015 976.92 276.73 979.029 302.079 873.554C310.529 839.802 337.991 803.941 359.115 778.627C420.377 702.685 519.662 641.509 616.835 626.743C623.172 626.743 629.509 624.633 633.734 620.414C648.521 609.867 646.409 601.429 659.084 571.896C656.971 574.005 612.61 574.005 608.385 574.005C568.248 576.115 528.112 582.443 490.087 590.881C354.891 618.305 192.232 713.232 202.794 873.554C202.794 873.554 209.131 1002.23 376.015 976.92Z" fill="#C5B17F"/>
<path d="M428.828 550.802L367.566 495.955C365.454 493.845 293.631 523.378 287.293 525.487C232.37 540.254 175.333 550.802 118.297 540.254C95.0603 536.035 71.8233 527.597 52.8113 514.94C42.249 508.612 33.7992 502.283 23.237 493.845C16.8996 489.626 8.44981 476.969 4.2249 489.626C0 493.845 0 498.064 0 502.283C2.11245 557.13 33.7992 622.525 88.7229 643.62C124.635 658.386 162.659 660.496 200.683 656.277C285.181 645.729 361.229 601.43 428.828 550.802Z" fill="#C5B17F"/>
<path d="M50.6973 495.956C50.6973 495.956 4.22341 407.357 109.846 384.152C143.645 375.714 188.007 386.261 219.693 392.59C314.754 413.685 414.039 474.861 468.963 555.022C473.188 559.241 475.3 565.569 481.637 567.679C496.424 576.117 504.874 571.898 536.561 569.788C534.449 569.788 515.437 529.708 513.324 525.489C492.2 491.737 471.075 457.984 445.726 426.342C359.115 316.648 202.794 215.392 65.4845 295.553C67.5969 295.553 -44.363 358.838 50.6973 495.956Z" fill="#C5B17F"/>
</g>
</svg>
