<svg width="144" height="218" viewBox="0 0 144 218" fill="none" xmlns="http://www.w3.org/2000/svg">
<g opacity="0.12">
<path d="M90.7087 88.8424L93.2053 72.6463C93.2053 71.8157 80.3063 63.51 79.4741 62.6794C71.1522 55.6196 62.8303 46.8986 58.2532 36.9318C56.1727 32.7789 55.3405 28.2108 54.9244 23.6427C54.9244 21.1509 54.9244 19.0745 55.3405 16.5828C55.3405 15.337 56.5888 12.43 53.6762 12.8452C52.844 12.8452 52.4279 13.2605 51.5957 13.6758C42.4416 19.9051 35.784 32.3636 38.2806 43.5763C39.945 51.0515 43.6899 57.696 48.683 63.0947C59.0854 75.9686 74.897 83.859 90.7087 88.8424Z" fill="#C5B17F"/>
<path d="M58.2531 21.5665C58.2531 21.5665 67.4072 4.53983 83.2188 18.6595C88.212 23.2277 91.5408 31.5334 94.0373 37.7626C101.111 55.6199 101.943 78.4605 94.8695 96.3178C94.4534 97.5637 94.0373 98.8095 94.0373 100.055C94.4534 103.378 96.1178 104.208 99.8627 109.192C99.4466 108.776 104.024 101.301 104.44 100.471C107.769 93.4108 110.681 85.9357 113.178 78.8758C121.5 52.7129 121.084 16.1678 92.789 2.46341C92.373 2.04813 69.9038 -9.57985 58.2531 21.5665Z" fill="#C5B17F"/>
<path d="M125.661 73.0618L141.056 67.6631C141.889 67.2478 143.137 52.2976 143.553 51.0517C146.05 39.839 149.794 29.0416 156.868 19.9053C159.781 16.1678 163.109 13.2608 167.27 10.7691C169.351 9.52321 171.431 8.69265 173.512 7.86208C174.76 7.44679 177.673 7.03151 176.008 4.95508C175.592 4.12451 175.176 4.12451 174.344 3.70923C164.358 -1.27419 150.21 -1.68948 141.472 5.78565C135.647 10.7691 131.486 16.9983 128.574 24.0582C122.748 39.4237 123.164 56.8657 125.661 73.0618Z" fill="#C5B17F"/>
<path d="M170.599 12.8452C170.599 12.8452 190.156 13.2605 184.33 33.6094C182.666 40.254 176.841 46.8985 172.68 51.882C160.197 66.4169 140.224 78.0449 121.084 79.7061C119.836 79.7061 118.587 80.1213 117.755 80.5366C114.842 82.6131 114.842 84.2742 112.346 89.6729C112.762 89.2576 121.5 89.6729 122.332 89.6729C130.238 89.2576 138.144 88.8423 145.634 87.1812C172.68 82.613 205.135 65.1711 203.887 33.6094C203.887 34.44 203.471 9.10762 170.599 12.8452Z" fill="#C5B17F"/>
<path d="M158.949 97.9787L171.015 108.776C171.431 109.191 185.579 102.962 186.827 102.547C197.646 99.2245 208.88 97.1481 220.115 98.8093C224.692 99.6398 229.269 100.886 233.014 103.377C235.094 104.623 236.759 105.869 238.839 107.53C240.087 108.361 241.752 110.853 242.584 108.361C243 107.53 243 107.115 243 106.284C243 95.487 236.342 83.0284 225.524 78.8756C218.45 76.3839 210.961 75.5533 203.471 76.7992C186.827 78.8756 171.848 88.0119 158.949 97.9787Z" fill="#C5B17F"/>
<path d="M233.43 107.946C233.43 107.946 242.584 124.973 222.195 130.371C215.537 132.033 206.799 130.371 200.558 129.126C181.834 125.388 161.861 113.76 150.627 97.9791C149.794 97.1486 148.962 95.9027 148.13 95.4874C145.217 93.8263 143.553 94.6569 137.311 95.4874C137.728 95.4874 141.889 103.378 142.305 104.208C146.466 110.853 151.043 117.498 155.62 123.312C172.68 144.491 204.303 164.009 230.933 147.813C230.933 146.983 252.57 134.524 233.43 107.946Z" fill="#C5B17F"/>
<path d="M153.539 136.6L150.627 152.381C150.627 153.212 163.109 161.933 163.942 162.763C172.264 170.238 179.753 178.959 183.914 189.341C185.579 193.494 186.411 198.062 186.411 203.046C186.411 205.538 186.411 207.614 185.995 210.106C185.579 211.352 184.746 214.259 187.243 213.843C188.075 213.843 188.491 213.428 189.323 213.013C198.478 207.199 205.967 194.74 203.887 183.527C202.638 176.052 198.894 169.408 194.317 163.178C184.33 150.72 168.519 142.414 153.539 136.6Z" fill="#C5B17F"/>
<path d="M183.082 205.538C183.082 205.538 173.096 222.149 158.116 207.199C153.539 202.215 150.21 193.91 148.13 187.68C141.888 169.823 141.888 146.567 149.794 129.125C150.21 127.879 150.626 127.049 150.626 125.803C150.626 122.481 148.962 121.65 145.217 116.667C145.633 117.082 140.64 124.557 140.224 124.972C136.479 132.032 133.15 139.092 130.654 146.567C121.084 172.315 120.251 208.86 147.714 223.81C147.714 223.395 169.767 235.853 183.082 205.538Z" fill="#C5B17F"/>
<path d="M116.923 151.135L101.943 156.949C101.111 157.365 100.279 172.315 99.8627 173.976C97.7822 184.774 94.4534 195.986 87.7959 205.123C84.8832 208.86 81.5545 212.182 77.8096 214.674C75.7291 215.92 73.6486 217.166 71.5682 217.996C70.3199 218.412 67.4072 218.827 69.0716 221.319C69.4877 221.734 70.3199 222.149 70.736 222.564C80.7223 227.133 94.8695 227.133 103.608 219.242C109.017 214.259 113.178 207.614 115.674 200.554C121.084 184.774 119.835 167.332 116.923 151.135Z" fill="#C5B17F"/>
<path d="M74.0648 212.597C74.0648 212.597 54.5083 213.013 59.5015 192.248C61.1658 185.604 66.5751 178.544 70.736 173.561C82.8028 158.61 102.359 146.567 121.5 143.66C122.748 143.66 123.996 143.245 124.829 142.414C127.741 140.338 127.325 138.677 129.822 132.863C129.406 133.278 120.668 133.278 119.835 133.278C111.93 133.693 104.024 134.939 96.534 136.6C69.9039 141.999 37.8645 160.687 39.945 192.248C39.945 192.248 41.1932 217.581 74.0648 212.597Z" fill="#C5B17F"/>
<path d="M84.4675 128.71L72.4007 117.913C71.9846 117.497 57.8373 123.311 56.589 123.727C45.7705 126.634 34.536 128.71 23.3014 126.634C18.7243 125.803 14.1473 124.142 10.4024 121.65C8.32192 120.404 6.65753 119.158 4.57705 117.497C3.32877 116.667 1.66438 114.175 0.832192 116.667C0 117.497 0 118.328 0 119.159C0.416096 129.956 6.65753 142.83 17.476 146.983C24.5497 149.89 32.0394 150.305 39.5291 149.474C56.1729 147.398 71.1524 138.677 84.4675 128.71Z" fill="#C5B17F"/>
<path d="M9.98601 117.913C9.98601 117.913 0.831898 100.471 21.6367 95.9027C28.2942 94.2416 37.0322 96.318 43.2737 97.5639C61.998 101.717 81.5545 113.76 92.373 129.541C93.2052 130.371 93.6213 131.617 94.8696 132.033C97.7822 133.694 99.4466 132.863 105.688 132.448C105.272 132.448 101.527 124.557 101.111 123.727C96.95 117.082 92.7891 110.438 87.7959 104.208C70.736 82.6136 39.9449 62.6799 12.8987 78.4608C13.3148 78.4608 -8.73831 90.9193 9.98601 117.913Z" fill="#C5B17F"/>
</g>
</svg>
