<svg width="1337" height="1058" viewBox="0 0 1337 1058" fill="none" xmlns="http://www.w3.org/2000/svg">
<g opacity="0.12">
<path d="M498.756 395.772L512.483 306.668C512.483 302.098 441.559 256.404 436.983 251.835C391.226 212.995 345.468 165.015 320.302 110.182C308.862 87.3352 304.286 62.2033 301.999 37.0715C301.999 23.3632 301.999 11.9396 304.286 -1.76868C304.286 -8.62283 311.15 -24.6158 295.135 -22.3311C290.559 -22.3311 288.271 -20.0464 283.695 -17.7617C233.362 16.509 196.756 85.0505 210.483 146.738C219.635 187.863 240.226 224.418 267.68 254.119C324.877 324.945 411.817 368.355 498.756 395.772Z" fill="white"/>
<path d="M320.301 25.6495C320.301 25.6495 370.634 -68.0238 457.574 9.65646C485.028 34.7883 503.331 80.4826 517.058 114.753C555.952 212.996 560.528 338.655 521.634 436.898C519.346 443.752 517.058 450.606 517.058 457.461C519.346 475.738 528.498 480.308 549.089 507.724C546.801 505.439 571.967 464.315 574.255 459.745C592.558 420.905 608.573 379.78 622.301 340.94C668.058 197.003 665.77 -4.05183 510.195 -79.4474C507.907 -81.7321 384.361 -145.704 320.301 25.6495Z" fill="white"/>
<path d="M690.938 308.954L775.59 279.253C780.165 276.968 787.029 194.718 789.317 187.864C803.044 126.177 823.635 66.7741 862.529 16.5104C878.544 -4.05202 896.847 -20.045 919.726 -33.7533C931.165 -40.6075 942.604 -45.1769 954.044 -49.7463C960.907 -52.031 976.923 -54.3158 967.771 -65.7393C965.483 -70.3088 963.195 -70.3088 958.62 -72.5935C903.711 -100.01 825.923 -102.295 777.877 -61.1699C745.847 -33.7533 722.968 0.517395 706.953 39.3575C674.923 123.892 677.211 219.85 690.938 308.954Z" fill="white"/>
<path d="M938.029 -22.3315C938.029 -22.3315 1045.56 -20.0467 1013.53 91.9043C1004.38 128.46 972.347 165.015 949.469 192.432C880.832 272.397 771.014 336.369 665.772 345.508C658.909 345.508 652.045 347.792 647.469 350.077C631.454 361.501 631.454 370.639 617.727 400.341C620.015 398.056 668.06 400.341 672.636 400.341C716.105 398.056 759.575 395.771 800.757 386.632C949.469 361.501 1127.92 265.543 1121.06 91.9043C1121.06 96.4737 1118.77 -42.8939 938.029 -22.3315Z" fill="white"/>
<path d="M873.969 446.036L940.317 505.438C942.605 507.723 1020.39 473.452 1027.26 471.167C1086.74 452.89 1148.51 441.466 1210.29 450.605C1235.45 455.174 1260.62 462.029 1281.21 475.737C1292.65 482.591 1301.8 489.445 1313.24 498.584C1320.1 503.153 1329.26 516.862 1333.83 503.153C1336.12 498.584 1336.12 496.299 1336.12 491.73C1336.12 432.327 1299.51 363.786 1240.03 340.939C1201.14 327.23 1159.95 322.661 1118.77 329.515C1027.26 340.939 944.893 391.202 873.969 446.036Z" fill="white"/>
<path d="M1283.5 500.871C1283.5 500.871 1333.83 594.544 1221.72 624.246C1185.12 633.385 1137.07 624.246 1102.76 617.392C999.801 596.829 889.983 532.857 828.21 446.038C823.634 441.469 819.059 434.614 814.483 432.33C798.468 423.191 789.316 427.76 754.998 432.33C757.286 432.33 780.165 475.739 782.453 480.309C805.331 516.864 830.498 553.42 855.665 585.406C949.468 701.926 1123.35 809.308 1269.77 720.204C1269.77 715.634 1388.74 647.093 1283.5 500.871Z" fill="white"/>
<path d="M844.225 658.514L828.21 745.334C828.21 749.903 896.847 797.882 901.422 802.451C947.18 843.576 988.362 891.555 1011.24 948.673C1020.39 971.52 1024.97 996.652 1024.97 1024.07C1024.97 1037.78 1024.97 1049.2 1022.68 1062.91C1020.39 1069.76 1015.82 1085.76 1029.54 1083.47C1034.12 1083.47 1036.41 1081.19 1040.98 1078.9C1091.32 1046.92 1132.5 978.374 1121.06 916.687C1114.19 875.562 1093.6 839.007 1068.44 804.736C1013.53 736.195 926.589 690.5 844.225 658.514Z" fill="white"/>
<path d="M1006.66 1037.78C1006.66 1037.78 951.755 1129.17 869.391 1046.92C844.225 1019.5 825.922 973.805 814.482 939.534C780.164 841.292 780.164 713.348 823.634 617.39C825.922 610.536 828.21 605.966 828.21 599.112C828.21 580.834 819.058 576.265 798.467 548.848C800.755 551.133 773.301 592.258 771.013 594.543C750.422 633.383 732.119 672.223 718.392 713.348C665.77 855 661.195 1056.05 812.194 1138.3C812.194 1136.02 933.452 1204.56 1006.66 1037.78Z" fill="white"/>
<path d="M642.891 738.481L560.528 770.467C555.952 772.751 551.376 855.001 549.089 864.14C537.649 923.543 519.346 985.23 482.74 1035.49C466.725 1056.06 448.422 1074.33 427.831 1088.04C416.392 1094.9 404.952 1101.75 393.513 1106.32C386.649 1108.6 370.634 1110.89 379.786 1124.6C382.074 1126.88 386.649 1129.17 388.937 1131.45C443.846 1156.58 521.634 1156.58 569.679 1113.17C599.422 1085.76 622.301 1049.2 636.028 1010.36C665.77 923.542 658.907 827.585 642.891 738.481Z" fill="white"/>
<path d="M407.241 1076.62C407.241 1076.62 299.71 1078.9 327.165 964.666C336.316 928.111 366.059 889.271 388.938 861.854C455.286 779.604 562.816 713.348 668.059 697.355C674.922 697.355 681.786 695.07 686.362 690.501C702.377 679.077 700.089 669.938 713.816 637.952C711.528 640.237 663.483 640.237 658.907 640.237C615.437 642.522 571.968 649.376 530.786 658.515C384.362 688.216 208.195 791.028 219.635 964.666C219.635 964.666 226.498 1104.03 407.241 1076.62Z" fill="white"/>
<path d="M464.439 615.106L398.09 555.703C395.803 553.419 318.015 585.405 311.151 587.689C251.666 603.682 189.894 615.106 128.121 603.682C102.954 599.113 77.7878 589.974 57.1969 576.266C45.7575 569.412 36.606 562.557 25.1666 553.419C18.303 548.849 9.15151 535.141 4.57575 548.849C0 553.419 0 557.988 0 562.557C2.28788 621.96 36.606 692.786 96.0908 715.633C134.985 731.626 176.166 733.911 217.348 729.342C308.863 717.918 391.227 669.939 464.439 615.106Z" fill="white"/>
<path d="M54.9074 555.704C54.9074 555.704 4.57414 459.746 118.968 434.615C155.574 425.476 203.619 436.899 237.937 443.753C340.892 466.601 448.422 532.857 507.907 619.676C512.483 624.246 514.771 631.1 521.634 633.385C537.649 642.524 546.801 637.954 581.119 635.669C578.831 635.669 558.24 592.26 555.952 587.69C533.074 551.135 510.195 514.58 482.74 480.309C388.937 361.504 219.635 251.837 70.9225 338.657C73.2104 338.657 -48.047 407.198 54.9074 555.704Z" fill="white"/>
</g>
</svg>
