<svg width="22" height="16" viewBox="0 0 22 16" fill="none" xmlns="http://www.w3.org/2000/svg">
<path d="M11.1628 15.0924L6.77676 15.0104C5.35668 14.9819 3.93306 15.0389 2.54081 14.743C0.422892 14.3008 0.272851 12.1329 0.115849 10.3144C-0.100484 7.75779 -0.0167352 5.15481 0.391513 2.61957C0.621983 1.19703 1.52897 0.348195 2.9316 0.255825C7.66651 -0.0793979 12.4329 -0.0396704 17.1573 0.116723C17.6563 0.13106 18.1587 0.209421 18.6507 0.298617C21.0793 0.733652 21.1385 3.19042 21.2959 5.25856C21.4529 7.34804 21.3866 9.44824 21.0865 11.5235C20.8458 13.2417 20.3852 14.6827 18.4413 14.8218C16.0057 15.0037 13.6261 15.1501 11.1836 15.1035C11.1837 15.0924 11.1697 15.0924 11.1628 15.0924ZM8.58421 10.7423C10.4196 9.66538 12.22 8.60641 14.0449 7.53672C12.2061 6.4598 10.4091 5.40083 8.58421 4.33114V10.7423Z" fill="#C5B17F"/>
</svg>
