<svg width="11" height="17" viewBox="0 0 11 17" fill="none" xmlns="http://www.w3.org/2000/svg">
<path d="M6.12018 16.3791C5.42418 16.3791 4.71618 16.2951 3.99618 16.1271C3.27618 15.9711 2.61618 15.7011 2.01618 15.3171C1.41618 14.9451 0.93018 14.4411 0.55818 13.8051C0.18618 13.1811 0.000179689 12.4071 0.000179689 11.4831C0.000179689 10.5831 0.18018 9.74311 0.54018 8.96311C0.90018 8.18311 1.41018 7.48711 2.07018 6.87511C2.74218 6.25111 3.53418 5.72911 4.44618 5.30911C5.35818 4.88911 6.36018 4.58911 7.45218 4.40911L7.88418 6.10111C6.96018 6.26911 6.12018 6.50911 5.36418 6.82111C4.60818 7.13311 3.96018 7.51111 3.42018 7.95511C2.89218 8.38711 2.48418 8.87911 2.19618 9.43111C1.92018 9.99511 1.78218 10.6011 1.78218 11.2491C1.78218 11.7771 1.87218 12.2271 2.05218 12.5991C2.23218 12.9831 2.47218 13.3011 2.77218 13.5531C3.08418 13.8171 3.42618 14.0211 3.79818 14.1651C4.18218 14.3211 4.57218 14.4291 4.96818 14.4891C5.37618 14.5611 5.76018 14.5971 6.12018 14.5971C6.80418 14.5971 7.48218 14.5311 8.15418 14.3991C8.83818 14.2791 9.45018 14.1051 9.99018 13.8771L10.5302 15.4431C10.2422 15.5871 9.85218 15.7311 9.36018 15.8751C8.88018 16.0191 8.35218 16.1391 7.77618 16.2351C7.21218 16.3311 6.66018 16.3791 6.12018 16.3791ZM2.97018 6.71311C2.50218 6.58111 2.07618 6.35911 1.69218 6.04711C1.32018 5.73511 1.02618 5.35711 0.81018 4.91311C0.59418 4.46911 0.48618 3.98911 0.48618 3.47311C0.48618 2.71711 0.66618 2.08111 1.02618 1.56511C1.39818 1.04911 1.87818 0.659109 2.46618 0.395109C3.05418 0.131109 3.68418 -0.000891209 4.35618 -0.000891209C4.66818 -0.000891209 4.98018 0.0231088 5.29218 0.0711089C5.61618 0.119109 5.92818 0.191109 6.22818 0.287109L5.90418 1.96111C5.65218 1.90111 5.39418 1.85311 5.13018 1.81711C4.86618 1.78111 4.63218 1.76311 4.42818 1.76311C3.99618 1.76311 3.61218 1.83511 3.27618 1.97911C2.95218 2.12311 2.70018 2.32711 2.52018 2.59111C2.34018 2.84311 2.25018 3.14311 2.25018 3.49111C2.25018 3.77911 2.33418 4.04911 2.50218 4.30111C2.68218 4.54111 2.91018 4.75111 3.18618 4.93111C3.46218 5.11111 3.74418 5.24911 4.03218 5.34511C4.33218 5.44111 4.60218 5.48311 4.84218 5.47111L2.97018 6.71311Z" fill="#C5B17F"/>
</svg>
