<svg width="18" height="18" viewBox="0 0 18 18" fill="none" xmlns="http://www.w3.org/2000/svg">
<path d="M17.7569 16.6253L13.5131 12.37C14.6043 11.0606 15.2606 9.38728 15.2606 7.55967C15.2606 3.39018 11.8408 0 7.63425 0C3.4277 0 0 3.39414 0 7.56362C0 11.7331 3.4198 15.1233 7.62634 15.1233C9.41333 15.1233 11.058 14.5101 12.3627 13.4856L16.6262 17.7567C16.9503 18.0811 17.4327 18.0811 17.7569 17.7567C18.081 17.4323 18.081 16.9497 17.7569 16.6253ZM1.62094 7.56362C1.62094 4.28816 4.31724 1.62586 7.62634 1.62586C10.9354 1.62586 13.6317 4.28816 13.6317 7.56362C13.6317 10.8391 10.9354 13.5014 7.62634 13.5014C4.31724 13.5014 1.62094 10.8351 1.62094 7.56362Z" fill="#C5B17F"/>
</svg>
